<svg width="28" height="28" viewBox="0 0 28 28" fill="none" xmlns="http://www.w3.org/2000/svg">
<path fill-rule="evenodd" clip-rule="evenodd" d="M14.0003 5.57057V22.4274C14.0005 23.0571 13.7149 23.6527 13.2237 24.0467C12.7326 24.4407 12.0892 24.5904 11.4746 24.4536L6.28776 23.3005C5.3385 23.0897 4.66309 22.2478 4.66309 21.2755V6.72372C4.66309 5.75096 5.33916 4.90891 6.28893 4.69871L11.4758 3.54556C12.09 3.40899 12.733 3.55862 13.2239 3.95234C13.7148 4.34607 14.0003 4.94132 14.0003 5.57057Z" stroke="#293A0F" stroke-width="1.5" stroke-linecap="round" stroke-linejoin="round"/>
<path d="M10.4986 15.1908V12.8564" stroke="#293A0F" stroke-width="1.5" stroke-linecap="round" stroke-linejoin="round"/>
<path d="M23.3367 9.33091V6.94759C23.3369 6.32844 23.091 5.7346 22.6532 5.2968C22.2154 4.85899 21.6216 4.61311 21.0024 4.61328H17.501" stroke="#293A0F" stroke-width="1.5" stroke-linecap="round" stroke-linejoin="round"/>
<path d="M23.3367 18.6689V21.0033C23.3369 21.6224 23.091 22.2162 22.6532 22.654C22.2154 23.0918 21.6216 23.3377 21.0024 23.3376H17.501" stroke="#293A0F" stroke-width="1.5" stroke-linecap="round" stroke-linejoin="round"/>
<path d="M17.501 13.9996H23.3367" stroke="#293A0F" stroke-width="1.5" stroke-linecap="round" stroke-linejoin="round"/>
<path d="M21.0029 16.3346L23.3372 14.0003L21.0029 11.666" stroke="#293A0F" stroke-width="1.5" stroke-linecap="round" stroke-linejoin="round"/>
</svg>
