<svg width="32" height="32" viewBox="0 0 32 32" fill="none" xmlns="http://www.w3.org/2000/svg">
<path fill-rule="evenodd" clip-rule="evenodd" d="M2 16.0003C2 15.7351 2.10536 15.4807 2.29289 15.2932C2.48043 15.1056 2.73478 15.0003 3 15.0003H26.586L20.292 8.70829C20.1042 8.52051 19.9987 8.26584 19.9987 8.00029C19.9987 7.73474 20.1042 7.48006 20.292 7.29229C20.4798 7.10451 20.7344 6.99902 21 6.99902C21.2656 6.99902 21.5202 7.10451 21.708 7.29229L29.708 15.2923C29.8011 15.3852 29.875 15.4955 29.9254 15.617C29.9758 15.7385 30.0018 15.8688 30.0018 16.0003C30.0018 16.1318 29.9758 16.2621 29.9254 16.3836C29.875 16.505 29.8011 16.6154 29.708 16.7083L21.708 24.7083C21.5202 24.8961 21.2656 25.0015 21 25.0015C20.7344 25.0015 20.4798 24.8961 20.292 24.7083C20.1042 24.5205 19.9987 24.2658 19.9987 24.0003C19.9987 23.7347 20.1042 23.4801 20.292 23.2923L26.586 17.0003H3C2.73478 17.0003 2.48043 16.8949 2.29289 16.7074C2.10536 16.5199 2 16.2655 2 16.0003Z" fill="#293A0F"/>
</svg>
