<svg width="40" height="39" viewBox="0 0 40 39" fill="none" xmlns="http://www.w3.org/2000/svg">
<g id="Group 116">
<path id="Vector 17" d="M27.7958 1.57012C26.2457 1.02689 23.4868 2.43923 21.8662 2.43923C19.0354 2.43923 16.9174 1.00956 14.0428 1.50458C12.2834 1.80756 10.1227 1.94123 8.5664 2.81555C5.87673 4.32663 4.19494 6.79911 2.73996 9.4287C1.61046 11.4701 0.566895 14.0446 0.566895 16.4133C0.566895 17.9049 1.94432 19.3253 2.50665 20.7294C3.06148 22.1148 1.93091 23.6946 2.50661 25.0657C3.67083 27.8385 5.10928 29.9971 7.9174 31.3293C8.79703 31.7466 9.80603 31.8364 10.6738 32.247C11.5354 32.6546 12.5742 33.1616 13.3282 33.7473C14.956 35.0118 16.8714 35.9605 18.739 36.8281C20.1149 37.4673 21.2863 37.5884 22.808 37.4836C24.8782 37.341 26.8544 36.0884 28.9188 35.7939C30.1139 35.6234 31.7574 34.7321 32.4045 33.6745C33.6286 31.6739 34.9754 29.1407 35.3505 26.7991C35.5197 25.743 34.9562 23.9688 35.3505 22.9844C35.8353 21.774 36.8377 21.4012 37.1881 20.1569C38.122 16.8404 38.7909 14.1378 37.159 10.8781C36.0002 8.56333 34.1188 6.65564 32.4337 4.71647C31.3163 3.43069 29.4002 2.13237 27.7958 1.57012Z" stroke="#76806F" stroke-width="0.9" stroke-linecap="round"/>
<path id="Vector 18" d="M9.17885 7.65178C8.23887 9.02632 6.68437 9.55739 5.49114 10.6237C4.00928 11.9479 3.31374 13.8859 1.99751 15.2092C1.26544 15.9452 0.703857 16.5741 1.02706 17.6708C1.36859 18.8296 1.78423 20.0029 2.10202 21.153C2.41222 22.2757 3.21421 23.1867 4.02053 23.9974C5.67626 25.6619 6.34314 28.2084 7.58134 30.1739C7.85896 30.6145 8.09942 30.9266 8.2084 31.4197C8.55855 33.0037 8.70396 35.7713 10.739 36.2828C11.8216 36.5549 13.0223 36.3786 14.0908 36.0802C14.8365 35.872 15.7717 36.0126 16.5394 36.0126C19.2051 36.0126 21.3152 34.416 23.758 33.6486C24.7477 33.3377 25.9093 33.7895 26.856 34.0539C27.7296 34.2978 28.8756 34.3916 29.7823 34.3916C30.9533 34.3916 32.0251 34.3648 33.1714 34.1514C34.3072 33.94 36.2802 33.2019 36.7994 32.0276C37.8442 29.6642 37.8475 28.8535 37.6056 26.4214C37.3563 23.9145 37.1911 21.4748 37.74 18.9916C38.0612 17.5383 38.1824 16.2465 38.1431 14.7439C38.1139 13.6289 37.1619 12.7399 36.2619 12.2372C34.9496 11.5043 33.8092 10.5239 32.6339 9.59554C29.8985 7.43479 28.5787 5.06884 26.3185 2.91621C25.4872 2.12448 24.1102 1.60352 23.0936 1.09253C21.8207 0.452641 20.3142 0.48464 18.9282 0.48464C17.677 0.48464 16.4061 1.2796 15.3002 1.83551C14.0079 2.48509 12.8064 3.41187 11.6423 4.26709C10.5829 5.04539 9.91361 6.57734 9.17885 7.65178Z" stroke="#76806F" stroke-width="0.9" stroke-linecap="round"/>
<path id="Vector 19" d="M5.96154 7.69548C6.74709 6.56045 8.18841 6.14146 9.33607 5.37611C10.4837 4.61076 11.1347 3.60856 11.986 2.60888C13.154 1.23735 13.5316 0.981156 15.4606 1.40062C17.1958 1.77797 18.6379 2.27325 20.4412 2.27325C22.4817 2.27325 24.4479 2.7334 26.339 3.41438C27.9703 4.00183 29.362 4.98489 30.7082 6.03226C31.6967 6.80135 33.4496 7.46467 34.1231 8.52335C34.6547 9.35898 34.2889 11.0576 34.6301 12.0437C34.9298 12.9097 35.8162 13.6726 36.5016 14.2439C37.5279 15.0995 38.7554 16.0886 39.1037 17.4435C39.4781 18.8999 39.4318 20.4673 39.4318 21.9559C39.4318 24.1166 39.12 26.8424 37.6796 28.5714C36.6719 29.781 35.2905 30.9308 34.0634 31.9128C33.1961 32.6068 31.8275 32.5831 30.8499 33.1583C29.5178 33.9421 28.3238 35.1339 26.7267 35.3287C25.3045 35.5022 23.8846 35.3424 22.4618 35.4406C21.0039 35.5411 19.8364 36.4729 18.6294 37.1784C15.6125 38.9416 13.3616 35.7491 10.7111 34.7917C9.9591 34.5201 9.17796 34.356 8.4295 34.0608C7.44928 33.6741 6.62614 32.8289 5.90935 32.0843C4.80201 30.934 4.18338 29.2115 2.92692 28.2134C2.19428 27.6314 1.41765 26.8794 1.33132 25.8864C1.1739 24.0754 1.64978 22.0908 1.98746 20.3225C2.28055 18.7876 2.52669 17.7023 3.60542 16.4963C5.2331 14.6766 6.20206 12.8106 5.98391 10.3283C5.93162 9.73331 5.56775 8.26445 5.96154 7.69548Z" stroke="#76806F" stroke-width="0.9" stroke-linecap="round"/>
</g>
</svg>
