<?xml version="1.0" encoding="UTF-8"?>
<svg id="Layer_1" data-name="Layer 1" xmlns="http://www.w3.org/2000/svg" viewBox="0 0 19.5 22.5">
  <defs>
    <style>
      .cls-1, .cls-2 {
        fill: #ea868f;
      }

      .cls-2 {
        fill-rule: evenodd;
      }
    </style>
  </defs>
  <path class="cls-1" d="m6,8.25c.2,0,.39.08.53.22.14.14.22.33.22.53v9c0,.2-.08.39-.22.53-.14.14-.33.22-.53.22s-.39-.08-.53-.22c-.14-.14-.22-.33-.22-.53v-9c0-.2.08-.39.22-.53.14-.14.33-.22.53-.22Zm3.75,0c.2,0,.39.08.53.22.14.14.22.33.22.53v9c0,.2-.08.39-.22.53-.14.14-.33.22-.53.22s-.39-.08-.53-.22c-.14-.14-.22-.33-.22-.53v-9c0-.2.08-.39.22-.53.14-.14.33-.22.53-.22Zm4.5.75c0-.2-.08-.39-.22-.53-.14-.14-.33-.22-.53-.22s-.39.08-.53.22c-.14.14-.22.33-.22.53v9c0,.2.08.39.22.53.14.14.33.22.53.22s.39-.08.53-.22c.14-.14.22-.33.22-.53v-9Z"/>
  <path class="cls-2" d="m19.5,4.5c0,.4-.16.78-.44,1.06s-.66.44-1.06.44h-.75v13.5c0,.8-.32,1.56-.88,2.12-.56.56-1.33.88-2.12.88H5.25c-.8,0-1.56-.32-2.12-.88-.56-.56-.88-1.33-.88-2.12V6h-.75c-.4,0-.78-.16-1.06-.44-.28-.28-.44-.66-.44-1.06v-1.5c0-.4.16-.78.44-1.06.28-.28.66-.44,1.06-.44h5.25c0-.4.16-.78.44-1.06.28-.28.66-.44,1.06-.44h3c.4,0,.78.16,1.06.44.28.28.44.66.44,1.06h5.25c.4,0,.78.16,1.06.44s.44.66.44,1.06v1.5Zm-15.57,1.5l-.18.09v13.41c0,.4.16.78.44,1.06s.66.44,1.06.44h9c.4,0,.78-.16,1.06-.44s.44-.66.44-1.06V6.09l-.18-.09H3.93Zm-2.43-1.5v-1.5h16.5v1.5H1.5Z"/>
</svg>