<svg width="75" height="75" viewBox="0 0 75 75" fill="none" xmlns="http://www.w3.org/2000/svg">
<path id="Star 6" d="M38.6507 31.3685L38.7315 32.904L39.5692 31.6146L51.4945 13.2608L41.5622 32.7653L40.8645 34.1355L42.2347 33.4378L61.7392 23.5055L43.3854 35.4308L42.096 36.2685L43.6315 36.3493L65.489 37.5L43.6315 38.6507L42.096 38.7315L43.3854 39.5692L61.7392 51.4945L42.2347 41.5622L40.8645 40.8645L41.5622 42.2347L51.4945 61.7392L39.5692 43.3854L38.7315 42.096L38.6507 43.6315L37.5 65.489L36.3493 43.6315L36.2685 42.096L35.4308 43.3854L23.5055 61.7392L33.4378 42.2347L34.1355 40.8645L32.7653 41.5622L13.2608 51.4945L31.6146 39.5692L32.904 38.7315L31.3685 38.6507L9.51098 37.5L31.3685 36.3493L32.904 36.2685L31.6146 35.4308L13.2608 23.5055L32.7653 33.4378L34.1355 34.1355L33.4378 32.7653L23.5055 13.2608L35.4308 31.6146L36.2685 32.904L36.3493 31.3685L37.5 9.51098L38.6507 31.3685Z" stroke="#293A0F"/>
</svg>
