<svg width="16" height="16" viewBox="0 0 16 16" fill="none" xmlns="http://www.w3.org/2000/svg">
<g id="pencil" clip-path="url(#clip0_407_822)">
<path id="Vector" fill-rule="evenodd" clip-rule="evenodd" d="M12.1497 0.133222C12.1962 0.0866587 12.2513 0.0497158 12.3121 0.0245094C12.3728 -0.000697071 12.4379 -0.0136719 12.5037 -0.0136719C12.5695 -0.0136719 12.6346 -0.000697071 12.6953 0.0245094C12.7561 0.0497158 12.8113 0.0866587 12.8577 0.133222L15.8577 3.13322C15.9043 3.17967 15.9412 3.23484 15.9664 3.29559C15.9916 3.35633 16.0046 3.42145 16.0046 3.48722C16.0046 3.55299 15.9916 3.61811 15.9664 3.67886C15.9412 3.7396 15.9043 3.79478 15.8577 3.84122L5.85771 13.8412C5.80973 13.8889 5.75257 13.9263 5.68971 13.9512L0.689712 15.9512C0.598848 15.9876 0.499308 15.9965 0.403432 15.9768C0.307556 15.9572 0.21956 15.9098 0.150353 15.8406C0.0811466 15.7714 0.0337731 15.6834 0.0141056 15.5875C-0.00556185 15.4916 0.00334166 15.3921 0.0397123 15.3012L2.03971 10.3012C2.06464 10.2384 2.10206 10.1812 2.14971 10.1332L12.1497 0.133222ZM11.2107 2.48722L13.5037 4.78022L14.7967 3.48722L12.5037 1.19422L11.2107 2.48722ZM12.7967 5.48722L10.5037 3.19422L4.00371 9.69422V9.98722H4.50371C4.63632 9.98722 4.7635 10.0399 4.85727 10.1337C4.95103 10.2274 5.00371 10.3546 5.00371 10.4872V10.9872H5.50371C5.63632 10.9872 5.7635 11.0399 5.85727 11.1337C5.95103 11.2274 6.00371 11.3546 6.00371 11.4872V11.9872H6.29671L12.7967 5.48722ZM3.03571 10.6622L2.92971 10.7682L1.40171 14.5892L5.22271 13.0612L5.32871 12.9552C5.23333 12.9196 5.1511 12.8557 5.09303 12.772C5.03495 12.6884 5.00379 12.589 5.00371 12.4872V11.9872H4.50371C4.3711 11.9872 4.24393 11.9345 4.15016 11.8408C4.05639 11.747 4.00371 11.6198 4.00371 11.4872V10.9872H3.50371C3.40189 10.9871 3.30252 10.956 3.21889 10.8979C3.13526 10.8398 3.07135 10.7576 3.03571 10.6622Z" fill="#76806F"/>
</g>
<defs>
<clipPath id="clip0_407_822">
<rect width="16" height="16" fill="white"/>
</clipPath>
</defs>
</svg>
