<svg width="96" height="96" viewBox="0 0 96 96" fill="none" xmlns="http://www.w3.org/2000/svg">
<path d="M48 0L55.7444 32.8195C56.6145 36.5066 59.4934 39.3855 63.1805 40.2556L96 48L63.1805 55.7444C59.4934 56.6145 56.6145 59.4934 55.7444 63.1805L48 96L40.2556 63.1805C39.3855 59.4934 36.5066 56.6145 32.8195 55.7444L0 48L32.8195 40.2556C36.5066 39.3855 39.3855 36.5066 40.2556 32.8195L48 0Z" fill="#E9FC9C"/>
<path d="M55.7061 33.8982L58 24.1771L60.2939 33.8982C61.2074 37.7697 64.2303 40.7926 68.1018 41.7061L77.8229 44L68.1018 46.2939C64.2303 47.2074 61.2074 50.2303 60.2939 54.1018L58 63.8229L55.7061 54.1018C54.7926 50.2303 51.7697 47.2074 47.8982 46.2939L38.1771 44L47.8982 41.7061C51.7697 40.7926 54.7926 37.7697 55.7061 33.8982Z" stroke="#293A0F"/>
</svg>
