<svg width="172" height="172" viewBox="0 0 172 172" fill="none" xmlns="http://www.w3.org/2000/svg">
<g id="Group 118">
<path id="Star 7" d="M86 0L89.7839 71.8782L129 11.5218L96.3379 75.6621L160.478 43L100.122 82.2161L172 86L100.122 89.7839L160.478 129L96.3379 96.3379L129 160.478L89.7839 100.122L86 172L82.2161 100.122L43 160.478L75.6621 96.3379L11.5218 129L71.8782 89.7839L0 86L71.8782 82.2161L11.5218 43L75.6621 75.6621L43 11.5218L82.2161 71.8782L86 0Z" fill="#E9FC9C"/>
<path id="Star 6" d="M86.4687 82.4137L86.5495 83.9492L87.3873 82.6599L92.2445 75.1842L88.199 83.1285L87.5013 84.4987L88.8715 83.801L96.8158 79.7555L89.3401 84.6127L88.0508 85.4505L89.5863 85.5313L98.489 86L89.5863 86.4687L88.0508 86.5495L89.3401 87.3873L96.8158 92.2445L88.8715 88.199L87.5013 87.5013L88.199 88.8715L92.2445 96.8158L87.3873 89.3401L86.5495 88.0508L86.4687 89.5863L86 98.489L85.5313 89.5863L85.4505 88.0508L84.6127 89.3401L79.7555 96.8158L83.801 88.8715L84.4987 87.5013L83.1285 88.199L75.1842 92.2445L82.6599 87.3873L83.9492 86.5495L82.4137 86.4687L73.511 86L82.4137 85.5313L83.9492 85.4505L82.6599 84.6127L75.1842 79.7555L83.1285 83.801L84.4987 84.4987L83.801 83.1285L79.7555 75.1842L84.6127 82.6599L85.4505 83.9492L85.5313 82.4137L86 73.511L86.4687 82.4137Z" stroke="#293A0F"/>
</g>
</svg>
